<svg width="32" height="32" viewBox="0 0 32 32" fill="none" xmlns="http://www.w3.org/2000/svg">
<g clip-path="url(#clip0)">
<path d="M20.3326 24.0002C20.3326 26.2055 18.538 28.0001 16.3327 28.0001H12.6663C12.1129 28.0001 11.6171 27.6588 11.421 27.1415L1.75457 1.80903C1.59735 1.39961 1.65326 0.939668 1.9013 0.578351C2.15056 0.217034 2.56119 0.000976562 2.99989 0.000976562H16.3327C18.538 0.000976562 20.3326 1.7956 20.3326 4.00085V24.0002Z" fill="#315AF2" fill-opacity="0.4"/>
<path d="M12.3329 5.33409V29.3333C12.3329 30.2535 11.5863 31 10.6664 31C10.4797 31 10.3063 30.9734 10.133 30.92L2.13327 28.2535C1.47997 28.0267 1 27.4001 1 26.6669V2.66767C1 1.74754 1.74656 1.00098 2.6667 1.00098C2.85321 1.00098 3.02655 1.02759 3.19988 1.08105L11.1996 3.74747C11.8529 3.97427 12.3329 4.60096 12.3329 5.33409Z" fill="#6483F5"/>
<path d="M9.81708 31.868L1.80658 29.1975C0.725319 28.8242 0 27.8069 0 26.667V2.66777C0 0.911718 1.70795 -0.422957 3.516 0.133178L11.5263 2.80375C12.6075 3.17703 13.3328 4.19433 13.3328 5.33419V29.3334C13.3328 30.8041 12.1371 32.0001 10.6664 32.0001C10.381 32.0001 10.1103 31.9588 9.81708 31.868ZM1.99994 2.66777V26.667C1.99994 26.9509 2.18938 27.2149 2.44914 27.3057L10.4264 29.9655C10.8598 30.0961 11.3329 29.7856 11.3329 29.3334V5.33419C11.3329 5.05026 11.1437 4.78635 10.8837 4.69554L2.90518 2.03717C2.82535 2.01178 2.75065 2.00104 2.66666 2.00104C2.29851 2.00104 1.99994 2.29961 1.99994 2.66777Z" fill="#64B5F6"/>
<path d="M30.9991 15.0004H18.3327C17.7807 15.0004 17.3328 14.5524 17.3328 14.0005C17.3328 13.4485 17.7807 13.0005 18.3327 13.0005H30.9991C31.5511 13.0005 31.9991 13.4485 31.9991 14.0005C31.9991 14.5524 31.5511 15.0004 30.9991 15.0004Z" fill="black"/>
<path d="M25.9994 20.0003C25.7433 20.0003 25.4874 19.9029 25.2926 19.7071C24.902 19.3162 24.902 18.683 25.2926 18.2923L29.5859 13.9993L25.2926 9.70594C24.902 9.31533 24.902 8.68205 25.2926 8.29143C25.6835 7.90058 26.3167 7.90058 26.7073 8.29143L31.7072 13.2913C32.0978 13.6819 32.0978 14.3152 31.7072 14.7058L26.7073 19.7056C26.5113 19.9029 26.2555 20.0003 25.9994 20.0003Z" fill="black"/>
<path d="M10.6664 32C10.381 32 10.1103 31.9599 9.83978 31.876L1.81586 29.2027C0.724099 28.8214 0 27.8041 0 26.6669V2.66764C0 1.19698 1.19601 0.000976562 2.66666 0.000976562C2.95181 0.000976562 3.22256 0.0410144 3.4933 0.124996L11.517 2.79825C12.609 3.17959 13.3328 4.19689 13.3328 5.33406V29.3333C13.3328 30.804 12.1371 32 10.6664 32ZM2.66666 2.00091C2.29998 2.00091 1.99994 2.30095 1.99994 2.66764V26.6669C1.99994 26.9508 2.19061 27.2147 2.46257 27.3095L10.4489 29.9707C10.5063 29.9893 10.581 30 10.6664 30C11.0331 30 11.3329 29.7 11.3329 29.3333V5.33406C11.3329 5.05014 11.1422 4.78623 10.8703 4.6915L2.88394 2.03021C2.82657 2.01166 2.75187 2.00091 2.66666 2.00091Z" fill="black"/>
<path d="M20.3325 10.6674C19.7806 10.6674 19.3326 10.2194 19.3326 9.66742V3.66761C19.3326 2.74894 18.5848 2.00091 17.6661 2.00091H2.66659C2.11461 2.00091 1.66663 1.55293 1.66663 1.00095C1.66663 0.448961 2.11461 0.000976562 2.66659 0.000976562H17.6661C19.6888 0.000976562 21.3325 1.64497 21.3325 3.66761V9.66742C21.3325 10.2194 20.8845 10.6674 20.3325 10.6674Z" fill="black"/>
<path d="M17.6664 28.0002H12.3331C11.7811 28.0002 11.3331 27.5522 11.3331 27.0002C11.3331 26.4482 11.7811 26.0002 12.3331 26.0002H17.6664C18.5851 26.0002 19.3329 25.2522 19.3329 24.3335V18.3337C19.3329 17.7817 19.7809 17.3337 20.3328 17.3337C20.8848 17.3337 21.3328 17.7817 21.3328 18.3337V24.3335C21.3328 26.3562 19.6891 28.0002 17.6664 28.0002Z" fill="black"/>
</g>
<defs>
<clipPath id="clip0">
<rect width="32" height="32" fill="white"/>
</clipPath>
</defs>
</svg>
