<svg width="55" height="18" viewBox="0 0 55 18" fill="none" xmlns="http://www.w3.org/2000/svg">
<path d="M9.98 11.42L11.22 14.44C11.34 14.78 11.68 15 12.04 15H12.9C13.36 15 13.68 14.64 13.68 14.22C13.68 14.14 13.66 14.04 13.62 13.94L8.38 1.52C8.24 1.18 7.9 0.96 7.54 0.96H6.58C6.22 0.96 5.88 1.18 5.74 1.52L0.5 13.94C0.46 14.04 0.44 14.14 0.44 14.22C0.44 14.64 0.76 15 1.22 15H1.94C2.3 15 2.64 14.78 2.76 14.44L4 11.42H9.98ZM7 4.14L9.04 9.12H4.94L7 4.14ZM20.2611 6.16C18.9411 6.16 17.6611 6.86 17.0811 7.84C17.2011 6.42 17.7011 5.08 19.0011 4.48C20.5811 3.7 21.9011 4.24 23.4011 2.76C23.5411 2.64 23.6011 2.46 23.6011 2.28C23.6011 2.08 23.5411 1.9 23.4011 1.76L22.9411 1.24C22.7811 1.06 22.5811 0.979999 22.3811 0.979999C22.1411 0.979999 21.8611 1.1 21.6011 1.26C20.7811 1.74 19.7611 1.6 18.1611 2.28C15.4211 3.46 14.7611 6.58 14.7611 9.52C14.7611 13.02 16.6211 15.22 19.6411 15.22C22.4811 15.22 24.3611 13.1 24.3611 10.58C24.3611 7.88 22.7411 6.16 20.2611 6.16ZM19.6811 8.3C21.1411 8.3 21.9011 9.34 21.9011 10.68C21.9011 11.98 21.0411 13.08 19.5811 13.08C18.1211 13.08 17.2411 11.74 17.2211 10C17.5211 9.08 18.4011 8.3 19.6811 8.3ZM26.32 6.68C26.1 6.82 25.96 7.08 25.96 7.34C25.96 7.46 26 7.58 26.06 7.68L26.2 7.9C26.34 8.16 26.6 8.3 26.84 8.3C26.98 8.3 27.1 8.26 27.22 8.2C27.84 7.9 28.5 7.64 29.12 7.64C30.12 7.64 30.7 8 30.7 8.62C30.7 9.2 30.26 9.72 29.5 9.72H28.66C28.26 9.72 27.92 10.06 27.92 10.48C27.92 10.92 28.26 11.26 28.66 11.26H29.6C30.48 11.26 30.96 11.68 30.96 12.28C30.96 12.92 30.32 13.38 29.12 13.38C28.48 13.38 27.78 13.12 27.16 12.72C27 12.62 26.84 12.58 26.7 12.58C26.46 12.58 26.24 12.68 26.08 12.9L25.84 13.16C25.74 13.28 25.7 13.44 25.7 13.6C25.7 13.82 25.78 14.06 25.96 14.18C27 15.04 27.96 15.22 29.32 15.22C31.76 15.22 33.4 14.18 33.4 12.5C33.4 11.46 32.76 10.62 31.5 10.36C32.56 9.98 33.16 9.2 33.16 8.34C33.16 6.78 31.94 5.78 29.56 5.78C28.28 5.78 27.26 6.14 26.32 6.68ZM37.8169 15.12C39.0369 15.12 39.9969 14.64 40.4769 13.96V14.26C40.4769 14.66 40.8169 15 41.2169 15H41.7369C42.1369 15 42.4769 14.66 42.4769 14.26V9.52C42.4769 7.14 41.5369 5.78 38.8769 5.78C37.9569 5.78 37.0569 6.02 36.2769 6.38C36.0369 6.5 35.8569 6.76 35.8569 7.02C35.8569 7.14 35.8969 7.24 35.9369 7.34L36.0569 7.58C36.1969 7.86 36.4369 8 36.7369 8C36.8569 8 36.9769 7.98 37.0969 7.94C37.5169 7.8 37.9569 7.7 38.6369 7.7C39.8969 7.7 40.3169 8.42 40.3169 9.74C40.3169 9.84 40.3169 9.92 40.3169 10.02C39.8769 9.7 39.0769 9.44 38.2769 9.44C36.4569 9.44 34.9969 10.38 34.9969 12.36C34.9969 14.1 36.1769 15.12 37.8169 15.12ZM40.3169 12.36C40.0369 12.76 39.5369 13.18 38.5769 13.18C37.8569 13.18 37.2969 12.8 37.2969 12.12C37.2969 11.36 37.9769 11 38.7369 11C39.3969 11 39.9169 11.14 40.3169 11.44V12.36ZM53.8947 17.1C54.2947 17.1 54.6347 16.76 54.6347 16.36V13.6C54.6347 13.2 54.2947 12.86 53.8947 12.86H53.1347V6.74C53.1347 6.34 52.7947 6 52.3947 6H51.5747C51.1747 6 50.8347 6.34 50.8347 6.74V12.86H47.1347V6.74C47.1347 6.34 46.7947 6 46.3947 6H45.5747C45.1747 6 44.8347 6.34 44.8347 6.74V14.26C44.8347 14.66 45.1747 15 45.5747 15H52.4747V16.36C52.4747 16.76 52.8147 17.1 53.2147 17.1H53.8947Z" fill="black"/>
</svg>
