<svg width="11" height="16" viewBox="0 0 11 16" fill="none" xmlns="http://www.w3.org/2000/svg">
<path d="M9.58 4.4C9.58 2.46 8.32 0.94 4.98 0.94C4.1 0.94 3.02 0.96 2.16 0.999999C1.48 1.02 0.94 1.58 0.94 2.24V13.78C0.94 14.44 1.5 15.02 2.16 15.04C3 15.06 4.02 15.08 4.84 15.08C7.8 15.08 10.04 13.76 10.04 10.88C10.04 9.02 8.96 7.96 7.58 7.6C8.78 7.02 9.58 6 9.58 4.4ZM3.4 8.98H5.14C6.68 8.98 7.58 9.58 7.58 10.76C7.58 12.08 6.68 12.78 5.02 12.78C4.32 12.78 3.74 12.72 3.4 12.68V8.98ZM3.4 6.84V3.3C3.84 3.26 4.38 3.24 4.94 3.24C6.26 3.24 7.14 3.84 7.14 4.98C7.14 6.26 6.2 6.84 5.06 6.84H3.4Z" fill="black"/>
</svg>
