<svg width="37" height="19" viewBox="0 0 37 19" fill="none" xmlns="http://www.w3.org/2000/svg">
<path d="M3.14 4.24V14C3.14 14.64 3.66 15.16 4.3 15.16C4.92 15.16 5.44 14.64 5.44 14V2.12C5.44 1.48 4.92 0.96 4.28 0.96C3.98 0.96 3.62 1.08 3.38 1.26L0.92 3.12C0.64 3.34 0.48 3.66 0.48 4C0.48 4.24 0.56 4.5 0.74 4.7C0.96 4.96 1.28 5.1 1.62 5.1C1.86 5.1 2.12 5.02 2.34 4.84L3.14 4.24ZM10.6791 4.24V14C10.6791 14.64 11.1991 15.16 11.8391 15.16C12.4591 15.16 12.9791 14.64 12.9791 14V2.12C12.9791 1.48 12.4591 0.96 11.8191 0.96C11.5191 0.96 11.1591 1.08 10.9191 1.26L8.45906 3.12C8.17906 3.34 8.01906 3.66 8.01906 4C8.01906 4.24 8.09906 4.5 8.27906 4.7C8.49906 4.96 8.81906 5.1 9.15906 5.1C9.39906 5.1 9.65906 5.02 9.87906 4.84L10.6791 4.24ZM22.8964 8.92C23.4564 8.3 24.1764 7.94 24.9564 7.94C26.4764 7.94 27.3164 8.98 27.3164 10.42C27.3164 11.92 26.3964 13.08 24.7964 13.08C24.0364 13.08 23.5164 12.96 22.8964 12.56V8.92ZM20.5964 17.88C20.5964 18.5 21.0964 19 21.7564 19C22.3964 19 22.8964 18.5 22.8964 17.88V14.78C23.4164 15.08 24.1964 15.22 24.9964 15.22C27.8764 15.22 29.7564 13.1 29.7564 10.36C29.7564 7.7 28.1564 5.78 25.6764 5.78C24.5164 5.78 23.4564 6.26 22.8964 6.84C22.8964 6.28 22.4164 5.86 21.7764 5.86C21.0564 5.86 20.5964 6.32 20.5964 7.16V17.88ZM35.9488 12.96C35.6688 12.96 35.3888 13.06 34.8888 13.06C34.1288 13.06 33.8488 12.42 33.8488 11.44V8.16H35.6288C36.2488 8.16 36.7488 7.66 36.7488 7.08C36.7488 6.5 36.2488 6 35.6288 6H33.8488V4.62C33.8488 4 33.3488 3.5 32.7088 3.5C32.0488 3.5 31.5488 4 31.5488 4.62V11.58C31.5488 13.88 32.3088 15.2 34.3488 15.2C35.0888 15.2 35.6688 15.1 36.2488 14.8C36.6688 14.58 36.8688 14.24 36.8688 13.88C36.8688 13.42 36.5888 12.96 35.9488 12.96Z" fill="black"/>
</svg>
