<svg width="31" height="24" viewBox="0 0 31 24" fill="none" xmlns="http://www.w3.org/2000/svg">
<path d="M29.5186 1.39692C29.4926 1.37125 29.4926 1.37125 29.4665 1.34557C29.1276 1.01182 28.6323 0.780762 28.111 0.780762H2.92905C2.40768 0.780762 1.91239 0.986148 1.5735 1.34557C1.23461 1.67933 1 2.16712 1 2.68058V21.3194C1 21.8328 1.20855 22.3206 1.5735 22.6544C1.91239 22.9881 2.40768 23.2192 2.92905 23.2192H28.111C28.6323 23.2192 29.1276 23.0138 29.4665 22.6544C29.8054 22.3206 30.04 21.8328 30.04 21.3194V2.68058C30.04 2.19279 29.8315 1.73067 29.5186 1.39692ZM28.6323 21.3194C28.6323 21.4477 28.5802 21.6018 28.4759 21.6788C28.3716 21.7815 28.2413 21.8328 28.111 21.8328H2.92905C2.79871 21.8328 2.6423 21.7815 2.56409 21.6788C2.45982 21.5761 2.40768 21.4477 2.40768 21.3194V2.68058C2.40768 2.52654 2.45982 2.39818 2.56409 2.32116C2.66837 2.21846 2.79871 2.16712 2.92905 2.16712H28.111C28.2413 2.16712 28.3977 2.21846 28.4759 2.32116L28.502 2.34683C28.5802 2.44952 28.6323 2.55222 28.6323 2.68058V21.3194Z" fill="#010101" stroke="#010101" stroke-width="0.4"/>
<path d="M25.6601 4.9141C25.3473 4.60602 24.9302 4.40063 24.4349 4.40063H6.60424C6.13501 4.40063 5.69185 4.58035 5.37903 4.88843C5.06621 5.19651 4.85767 5.63295 4.85767 6.09507V16.8265V17.8791C4.85767 18.3412 5.04014 18.7777 5.37903 19.0857C5.69185 19.3938 6.13501 19.5992 6.60424 19.5992H17.7093H24.4349C24.9041 19.5992 25.3473 19.4195 25.6601 19.0857C25.9729 18.7777 26.1815 18.3412 26.1815 17.8791V14.7983V6.12074C26.1815 5.65862 25.999 5.22218 25.6601 4.9141ZM6.60424 18.1872V18.2128C6.52603 18.2128 6.42176 18.1872 6.36962 18.1102C6.31749 18.0588 6.26535 17.9818 6.26535 17.8791V17.1089L10.5927 12.8215L14.2683 16.4671L16.0149 18.1872H6.60424ZM24.7738 17.9048C24.7738 17.9818 24.7477 18.0845 24.6695 18.1358C24.6174 18.1872 24.5131 18.2385 24.4349 18.2385H17.9961V18.2128L17.579 17.8021L15.7542 16.0049L20.7332 11.0757L24.7738 15.0807V17.9048ZM24.7738 13.1295L21.2285 9.6123C20.9678 9.35557 20.5247 9.3299 20.2379 9.6123L14.7636 15.0294L11.088 11.3838C10.8273 11.127 10.3841 11.1014 10.0974 11.3838L6.26535 15.1834V6.12074C6.26535 6.01805 6.29142 5.94103 6.36962 5.88968C6.42176 5.83834 6.52603 5.78699 6.60424 5.78699H24.4349C24.5131 5.78699 24.6174 5.81266 24.6695 5.88968C24.7217 5.94103 24.7738 6.04372 24.7738 6.12074V13.1295Z" fill="#010101" stroke="#010101" stroke-width="0.4"/>
<path d="M14.6594 11.2811C15.6384 11.2811 16.432 10.4995 16.432 9.53533C16.432 8.57116 15.6384 7.78955 14.6594 7.78955C13.6804 7.78955 12.8867 8.57116 12.8867 9.53533C12.8867 10.4995 13.6804 11.2811 14.6594 11.2811Z" fill="#010101" stroke="#010101" stroke-width="0.4"/>
</svg>
