<svg width="27" height="12" viewBox="0 0 27 12" fill="none" xmlns="http://www.w3.org/2000/svg">
<path d="M8.12 6L10.88 2.808C11.024 2.64 11.096 2.424 11.096 2.208C11.096 1.968 11 1.704 10.808 1.536L10.304 1.128C10.136 0.983999 9.944 0.912 9.728 0.912C9.488 0.912 9.248 1.008 9.08 1.2L5.504 5.328C5.336 5.52 5.264 5.76 5.264 6C5.264 6.24 5.336 6.48 5.504 6.672L8.984 10.8C9.152 10.992 9.416 11.112 9.656 11.112C9.872 11.112 10.064 11.04 10.232 10.896L10.76 10.488C10.952 10.32 11.072 10.056 11.072 9.816C11.072 9.6 11 9.408 10.856 9.24L8.12 6ZM2.888 6L5.648 2.808C5.792 2.64 5.864 2.424 5.864 2.208C5.864 1.968 5.768 1.704 5.576 1.536L5.072 1.128C4.904 0.983999 4.712 0.912 4.496 0.912C4.256 0.912 4.016 1.008 3.848 1.2L0.272 5.328C0.104 5.52 0.032 5.76 0.032 6C0.032 6.24 0.104 6.48 0.272 6.672L3.752 10.8C3.92 10.992 4.184 11.112 4.424 11.112C4.64 11.112 4.832 11.04 5 10.896L5.528 10.488C5.72 10.32 5.84 10.056 5.84 9.816C5.84 9.6 5.768 9.408 5.624 9.24L2.888 6ZM20.7961 1.536C20.6041 1.704 20.5081 1.968 20.5081 2.208C20.5081 2.424 20.5801 2.64 20.7241 2.808L23.4841 6L20.7481 9.24C20.6041 9.408 20.5321 9.6 20.5321 9.816C20.5321 10.056 20.6521 10.32 20.8441 10.488L21.3721 10.896C21.5401 11.04 21.7321 11.112 21.9481 11.112C22.1881 11.112 22.4521 10.992 22.6201 10.8L26.1001 6.72C26.2681 6.528 26.3641 6.264 26.3641 6.024C26.3641 5.76 26.2681 5.52 26.1001 5.328L22.5241 1.2C22.3561 1.008 22.1161 0.912 21.8521 0.912C21.6601 0.912 21.4441 0.96 21.3001 1.128L20.7961 1.536ZM15.5401 1.536C15.3481 1.704 15.2521 1.968 15.2521 2.208C15.2521 2.424 15.3241 2.64 15.4681 2.808L18.2281 6L15.4921 9.24C15.3481 9.408 15.2761 9.6 15.2761 9.816C15.2761 10.056 15.3961 10.32 15.5881 10.488L16.1161 10.896C16.2841 11.04 16.4761 11.112 16.6921 11.112C16.9321 11.112 17.1961 10.992 17.3641 10.8L20.8441 6.72C21.0121 6.528 21.1081 6.264 21.1081 6.024C21.1081 5.76 21.0121 5.52 20.8441 5.328L17.2681 1.2C17.1001 1.008 16.8601 0.912 16.5961 0.912C16.4041 0.912 16.1881 0.96 16.0441 1.128L15.5401 1.536Z" fill="black"/>
</svg>
