<svg width="22" height="18" viewBox="0 0 22 18" fill="none" xmlns="http://www.w3.org/2000/svg">
<path d="M1.32 10.8C1.74 11.12 2.06 11.68 2.06 12.66V14.9C2.06 16.94 2.86 17.96 5.2 17.96H5.52C6.28 17.96 6.74 17.52 6.74 16.86C6.74 16.28 6.32 15.8 5.66 15.8C4.72 15.8 4.36 15.42 4.36 14.1V11.76C4.36 10.46 3.76 9.6 2.86 9.48C3.76 9.36 4.36 8.5 4.36 7.2V4.86C4.36 3.54 4.72 3.16 5.66 3.16C6.32 3.16 6.74 2.68 6.74 2.1C6.74 1.44 6.28 0.999999 5.52 0.999999H5.2C2.86 0.999999 2.06 2.02 2.06 4.06V6.3C2.06 7.28 1.76 7.84 1.32 8.18C0.54 8.78 0.28 9.02 0.28 9.48C0.28 9.94 0.54 10.18 1.32 10.8ZM11.9317 5.98C11.9317 5.36 11.4317 4.86 10.7917 4.86C10.1317 4.86 9.63172 5.36 9.63172 5.98V13.04C9.63172 13.66 10.1317 14.16 10.7917 14.16C11.4317 14.16 11.9317 13.66 11.9317 13.04V5.98ZM10.8317 0.42C10.0517 0.42 9.39172 0.939999 9.39172 1.76C9.39172 2.68 10.0517 3.2 10.8317 3.2C11.4917 3.2 12.1517 2.68 12.1517 1.76C12.1517 0.939999 11.4917 0.42 10.8317 0.42ZM20.2586 8.18C19.8186 7.84 19.5186 7.28 19.5186 6.3V4.06C19.5186 2.02 18.7186 0.999999 16.3786 0.999999H16.0586C15.2986 0.999999 14.8386 1.44 14.8386 2.1C14.8386 2.68 15.2586 3.16 15.9186 3.16C16.8586 3.16 17.2186 3.54 17.2186 4.86V7.2C17.2186 8.5 17.8186 9.36 18.7186 9.48C17.8186 9.6 17.2186 10.46 17.2186 11.76V14.1C17.2186 15.42 16.8586 15.8 15.9186 15.8C15.2586 15.8 14.8386 16.28 14.8386 16.86C14.8386 17.52 15.2986 17.96 16.0586 17.96H16.3786C18.7186 17.96 19.5186 16.94 19.5186 14.9V12.66C19.5186 11.68 19.8386 11.12 20.2586 10.8C21.0386 10.18 21.2986 9.94 21.2986 9.48C21.2986 9.02 21.0386 8.78 20.2586 8.18Z" fill="black"/>
</svg>
